# xmcd CD database file generated by OrangeCD 5.2
#
# Track frame offsets:
#	182
#	15122
#	25937
#	38175
#	49835
#	67012
#	83245
#	97117
#	113777
#	125887
#	136052
#	155790
#
# Disc length: 2392 seconds
#
# Revision: 3
# Processed by: cddbd v1.5.1PL0 Copyright (c) Steve Scherf et al.
# Submitted via: OrangeCD 5.2
#
DISCID=a009560c
DTITLE=Various Artist - New Country January 1995
DYEAR=1900
DGENRE=Country
TTITLE0=The Bottle Rockets - Welfare Music
TTITLE1=Joe Ely - Whiskey And Women And Money To Burn
TTITLE2=Chris Thile - Shadow Ridge
TTITLE3=The Spanic Family - Billy
TTITLE4=Stephen Bruton - To Find My Love
TTITLE5=Lisa Brokop - Let Me Live Another Day
TTITLE6=Shania Twain - No One Needs To Know
TTITLE7=Beausoleil - Quel Espoir
TTITLE8=Nick Lowe - Where's My Everything
TTITLE9=Johnny Powers - Bigger Heartaches
TTITLE10=Lyle Lovett - Just The Morning
TTITLE11=Victoria Williams - Crazy Mary
EXTD=
EXTT0=
EXTT1=
EXTT2=
EXTT3=
EXTT4=
EXTT5=
EXTT6=
EXTT7=
EXTT8=
EXTT9=
EXTT10=
EXTT11=
PLAYORDER=
